HIERARCHY
ROOT Hips
{
	OFFSET -3.958830 18.904000 13.208200
	CHANNELS 6 Xposition Yposition Zposition Zrotation Yrotation Xrotation 
	JOINT LHipJoint
	{
		OFFSET 0.000000 0.000000 0.000000
		CHANNELS 3 Zrotation Yrotation Xrotation
		JOINT LeftUpLeg
		{
			OFFSET 1.800000 -1.400000 0.085000
			CHANNELS 3 Zrotation Yrotation Xrotation
			JOINT LeftLeg
			{
				OFFSET 2.215000 -6.000000 0.000000
				CHANNELS 3 Zrotation Yrotation Xrotation
				JOINT LeftFoot
				{
					OFFSET 2.500000 -6.900000 0.000000
					CHANNELS 3 Zrotation Yrotation Xrotation
					JOINT LeftToeBase
					{
						OFFSET 0.200000 -0.500000 1.950000
						CHANNELS 3 Zrotation Yrotation Xrotation
						End Site
						{
							OFFSET 0.000000 0.000000 0.000000
						}
					}
				}
			}
		}
	}
	JOINT RHipJoint
	{
		OFFSET 0.000000 0.000000 0.000000
		CHANNELS 3 Zrotation Yrotation Xrotation
		JOINT RightUpLeg
		{
			OFFSET -1.800000 -1.400000 0.085000
			CHANNELS 3 Zrotation Yrotation Xrotation
			JOINT RightLeg
			{
				OFFSET -2.215000 -6.000000 0.000000
				CHANNELS 3 Zrotation Yrotation Xrotation
				JOINT RightFoot
				{
					OFFSET -2.500000 -6.900000 0.000000
					CHANNELS 3 Zrotation Yrotation Xrotation
					JOINT RightToeBase
					{
						OFFSET -0.200000 -0.500000 1.950000
						CHANNELS 3 Zrotation Yrotation Xrotation
						End Site
						{
							OFFSET 0.000000 0.000000 0.000000
						}
					}
				}
			}
		}
	}
	JOINT LowerBack
	{
		OFFSET 0.000000 0.000000 0.000000
		CHANNELS 3 Zrotation Yrotation Xrotation
		JOINT Spine
		{
			OFFSET -0.087000 1.940000 -0.288900
			CHANNELS 3 Zrotation Yrotation Xrotation
			JOINT Spine1
			{
				OFFSET 0.000000 1.950000 0.060000
				CHANNELS 3 Zrotation Yrotation Xrotation
				JOINT Neck
				{
					OFFSET 0.000000 0.000000 0.000000
					CHANNELS 3 Zrotation Yrotation Xrotation
					JOINT Neck1
					{
						OFFSET 0.000000 1.600000 0.340000
						CHANNELS 3 Zrotation Yrotation Xrotation
						JOINT Head
						{
							OFFSET 0.000000 1.667000 -0.240000
							CHANNELS 3 Zrotation Yrotation Xrotation
							End Site
							{
								OFFSET 0.000000 0.000000 0.000000
							}
						}
					}
				}
				JOINT LeftShoulder
				{
					OFFSET 0.000000 0.000000 0.000000
					CHANNELS 3 Zrotation Yrotation Xrotation
					JOINT LeftArm
					{
						OFFSET 2.700000 1.550000 -0.730000
						CHANNELS 3 Zrotation Yrotation Xrotation
						JOINT LeftForeArm
						{
							OFFSET 5.450000 0.000000 0.000000
							CHANNELS 3 Zrotation Yrotation Xrotation
							JOINT LeftHand
							{
								OFFSET 3.450000 0.000000 0.000000
								CHANNELS 3 Zrotation Yrotation Xrotation
								JOINT LeftHandIndex1
								{
									OFFSET 0.750000 0.000000 0.000000
									CHANNELS 3 Zrotation Yrotation Xrotation
									End Site
									{
										OFFSET 0.000000 0.000000 0.000000
									}
								}
							}
						}
					}
				}
				JOINT RightShoulder
				{
					OFFSET 0.000000 0.000000 0.000000
					CHANNELS 3 Zrotation Yrotation Xrotation
					JOINT RightArm
					{
						OFFSET -2.700000 1.550000 -0.730000
						CHANNELS 3 Zrotation Yrotation Xrotation
						JOINT RightForeArm
						{
							OFFSET -5.450000 0.000000 0.000000
							CHANNELS 3 Zrotation Yrotation Xrotation
							JOINT RightHand
							{
								OFFSET -3.450000 0.000000 0.000000
								CHANNELS 3 Zrotation Yrotation Xrotation
								JOINT RightHandIndex1
								{
									OFFSET -0.750000 0.000000 0.000000
									CHANNELS 3 Zrotation Yrotation Xrotation
									End Site
									{
										OFFSET 0.000000 0.000000 0.000000
									}
								}
							}
						}
					}
				}
			}
		}
	}
}
MOTION
Frames: 7
Frame Time: 0.016667
-1.363700 17.052120 1.356050 5.876939 -4.030955 -16.930501 -15.064508 12.813972 3.671480 25.072531 -5.063416 -11.883735 -15.951767 18.232746 44.564131 0.637642 10.638962 0.606924 0.488060 0.528480 0.333120 18.449391 -10.243805 2.623288 -20.035707 2.661913 -33.243513 -6.796538 -9.410631 63.855277 -1.514123 -9.326058 0.976795 0.249480 -0.041750 0.109510 -3.954322 -2.246606 -8.280753 25.985015 -14.182923 47.322680 -6.527899 -9.030901 20.239255 5.337113 -1.013761 -11.918732 -6.993424 5.271465 67.578513 -1.312030 0.903650 -17.058740 -17.055499 -23.646021 6.160856 -18.041234 -10.514658 -14.287290 39.577660 -45.389273 -19.069550 -3.292776 2.565689 0.700230 -0.178150 0.384410 0.097570 8.551303 21.148258 7.418561 39.702089 13.194062 -24.722968 -66.608262 72.448050 -51.985754 1.384558 0.834787 -0.098810 0.379360 -0.031180 -0.080200 
-1.376340 17.018370 1.356410 6.207355 -3.676536 -16.833750 -15.055457 12.605126 3.803284 25.807294 -5.166799 -12.164803 -17.831387 19.159009 44.121319 0.683733 10.867223 0.544398 0.476450 0.509340 0.326160 18.490604 -10.202327 2.605437 -20.301369 2.544158 -33.741067 -7.393664 -9.316498 64.599909 -1.535675 -9.440900 0.956747 0.248710 -0.028830 0.091000 -4.037295 -2.046719 -8.334758 26.668199 -14.446376 46.422611 -7.027991 -9.232546 20.755538 5.280012 -0.892095 -12.415426 -7.019528 5.513153 68.751733 -1.286410 1.193890 -16.205780 -17.139119 -24.823554 6.705946 -16.969667 -10.102355 -14.603578 42.525777 -45.658913 -20.533106 -3.317754 2.535943 0.712150 -0.171500 0.372260 0.104120 8.723421 21.971034 7.784588 38.084447 13.171333 -23.697415 -71.406138 69.508869 -53.489253 1.382306 0.848062 -0.126060 0.397180 -0.029870 -0.089790 
-1.378500 16.976820 1.359400 5.787222 -3.803993 -16.236748 -15.020974 12.262220 3.926861 27.409350 -5.041815 -12.654590 -19.682554 20.182631 43.640499 0.779028 11.091111 0.496610 0.473930 0.539020 0.297120 18.585678 -10.132996 2.633314 -19.879248 2.796030 -34.665538 -7.582580 -9.489536 65.431074 -1.563968 -9.581635 0.946148 0.263910 0.000650 0.059190 -4.237069 -1.631547 -8.372554 28.964725 -15.386314 44.526777 -8.030899 -9.725802 21.512318 5.134785 -1.906712 -12.546176 -9.634340 6.934780 67.470713 -1.258670 0.962400 -15.817950 -15.058024 -24.290380 6.875177 -18.682632 -11.527950 -14.055010 43.903914 -43.311673 -20.480227 -3.307514 2.523095 0.670830 -0.161710 0.357270 0.136040 6.945714 21.595834 7.789326 38.875977 14.747592 -22.078768 -75.996722 66.751516 -55.757985 1.438702 0.811888 -0.126560 0.432150 -0.050020 -0.055930 
-1.387400 16.950230 1.367270 5.718812 -3.624630 -16.622473 -15.015222 12.173073 3.988630 28.365115 -5.021114 -12.004225 -20.830771 20.560339 42.894295 0.780210 11.180327 0.463084 0.500650 0.575510 0.299940 18.608046 -10.164165 2.531076 -19.695722 2.673095 -34.068968 -7.954327 -9.319135 65.622216 -1.583526 -9.603690 0.928210 0.297450 0.000900 0.058910 -4.286288 -1.521002 -8.337850 29.766561 -15.951059 44.030742 -8.325069 -10.347915 22.484952 4.956239 -2.679679 -12.368454 -11.449374 7.697547 65.500746 -0.822220 0.409270 -17.369330 -12.963177 -23.856997 6.869645 -19.798694 -13.106431 -13.394299 43.841075 -39.421143 -19.231468 -3.313331 2.565124 0.677450 -0.172110 0.361630 0.142750 5.337311 21.250550 7.515398 38.952175 16.192897 -21.281454 -78.075673 65.289691 -56.947227 1.464135 0.750743 -0.128740 0.450460 -0.051320 -0.050650 
-1.397110 16.930970 1.377020 5.863673 -4.099481 -16.996359 -15.009396 12.135408 4.004216 28.974784 -4.780221 -11.138542 -21.444572 20.913563 42.492268 0.784785 11.255874 0.417184 0.527840 0.595750 0.316580 18.617646 -10.200007 2.496393 -19.405925 2.955791 -33.807344 -8.772431 -8.670193 65.955479 -1.595419 -9.621640 0.902739 0.313140 -0.017920 0.082400 -4.309163 -1.391413 -8.317285 29.878324 -15.933742 43.774276 -8.827674 -10.483832 23.614972 5.174132 -2.613835 -12.509989 -10.840650 7.727583 65.001574 -0.565210 0.454110 -17.647980 -11.360149 -24.049885 7.292977 -20.439833 -12.870519 -13.147470 43.396839 -36.864913 -18.258069 -3.324704 2.647374 0.680430 -0.174460 0.362390 0.127510 3.421231 21.388549 7.496847 39.391703 17.693258 -20.890515 -76.538895 62.764853 -54.637864 1.505768 0.413889 -0.111420 0.418430 -0.045100 -0.060820 
-1.398980 16.900430 1.393010 5.617662 -4.213763 -17.105266 -15.015480 12.086108 4.017284 29.739098 -4.579968 -10.596028 -21.881285 21.152377 42.083160 0.812813 11.319009 0.401083 0.511680 0.589770 0.293730 18.626726 -10.173337 2.489464 -19.361977 3.100635 -33.730418 -8.780599 -8.793904 66.564259 -1.617052 -9.740357 0.865598 0.307770 0.007860 0.099860 -4.318761 -1.349522 -8.316658 30.265648 -16.014504 42.998637 -8.960869 -10.719895 24.126161 5.311018 -2.589220 -12.447167 -10.390127 7.621084 64.342352 -0.616030 0.351230 -17.230320 -9.728800 -23.519308 7.512366 -21.715586 -13.196418 -12.209582 41.208961 -34.247040 -16.458541 -3.353201 2.686828 0.653820 -0.152300 0.353770 0.125720 1.615009 20.821472 7.245788 39.801847 18.832212 -20.502256 -72.901213 61.359649 -50.883209 1.518926 0.176135 -0.099700 0.418980 -0.026890 -0.043600 
-1.412280 16.897160 1.410530 5.514134 -4.470159 -17.755506 -14.997840 12.113750 3.984086 30.224323 -4.346488 -9.546227 -21.720043 21.121466 41.832508 0.840415 11.253529 0.404787 0.575710 0.684450 0.313470 18.632289 -10.267088 2.426724 -19.117425 3.181165 -32.766303 -8.754327 -8.700053 66.607165 -1.656520 -9.736076 0.862954 0.341310 -0.031090 0.116410 -4.350580 -1.231906 -8.263536 30.587481 -16.093853 42.800104 -9.381541 -10.877391 24.755395 5.441027 -2.366148 -12.470167 -9.815332 7.613487 65.288223 0.267500 0.267750 -17.987940 -9.083011 -23.472036 7.746116 -22.011805 -13.029888 -11.702352 39.251923 -32.559413 -15.069055 -3.313353 2.758659 0.648280 -0.178670 0.397020 0.148560 0.839826 20.510309 7.078038 39.852384 19.220700 -20.405234 -69.762223 60.466383 -47.891155 1.540036 -0.006062 -0.048200 0.394260 -0.067520 -0.022270 
